<svg xmlns="http://www.w3.org/2000/svg" width="400" height="400" viewBox="0 0 400 400"><path d="M253.637 149.906c0 58.817-47.684 106.5-106.5 106.5-58.821 0-106.5-47.683-106.5-106.5s47.679-106.5 106.5-106.5c58.816 0 106.5 47.684 106.5 106.5z" style="fill:none;stroke-width:4.5;stroke-linecap:butt;stroke-linejoin:miter;stroke-miterlimit:4;stroke-dasharray:none;stroke-opacity:1;stroke:#0080ff" transform="scale(1.33333)"/><path d="m147.902 159.281 19.7 11.856" style="fill:none;stroke:red;stroke-width:3;stroke-linecap:butt;stroke-linejoin:miter;stroke-miterlimit:4;stroke-dasharray:none;stroke-opacity:1" transform="scale(1.33333)"/><path d="m136.223 53.82-19.102 36.407m-17.437 67.296-16.36 41.774" style="fill:none;stroke:#faa;stroke-width:1.5;stroke-linecap:butt;stroke-linejoin:miter;stroke-miterlimit:4;stroke-dasharray:none;stroke-opacity:1" transform="scale(1.33333)"/><path d="M147.105 112.762 147 158.934" style="fill:none;stroke:red;stroke-width:1.5;stroke-linecap:butt;stroke-linejoin:miter;stroke-miterlimit:4;stroke-dasharray:none;stroke-opacity:1" transform="scale(1.33333)"/><path d="m174.789 47.173-.815 21.071" style="fill:none;stroke:#faa;stroke-width:1.39829803;stroke-linecap:butt;stroke-linejoin:miter;stroke-miterlimit:4;stroke-dasharray:none;stroke-opacity:1" transform="rotate(21.22)scale(1.43031)"/><path d="m230.625 76.66-28.363 25.871" style="fill:none;stroke:#faa;stroke-width:1.5;stroke-linecap:butt;stroke-linejoin:miter;stroke-miterlimit:4;stroke-dasharray:none;stroke-opacity:1" transform="scale(1.33333)"/><path d="m138.887 168.281 8.25-36.75 8.25 36.75z" style="fill:red;fill-opacity:1;fill-rule:nonzero;stroke:none" transform="scale(1.33333)"/><path d="m187.691 106.242 32.161-19.605-20.696 31.468z" style="fill-opacity:1;fill-rule:nonzero;stroke:none;fill:#0080ff" transform="scale(1.33333)"/><path d="m218.605 257.547 26.583-26.684-12.626 35.485zm-184.621 4.855 15.543-34.304.614 37.66zM31.82 65.051l22.047-30.535-6.879 37.031Z" style="fill-opacity:1;fill-rule:nonzero;stroke:none;fill:#888" transform="scale(1.33333)"/><path d="m105.219 94.746 24.554-28.558-9.992 36.316zm-32.5 108.723 21.16-31.157-5.813 37.215z" style="fill-opacity:1;fill-rule:nonzero;stroke:none;fill:#0080ff" transform="scale(1.33333)"/><path d="m255.43 89.871 24.066-28.973-9.371 36.481z" style="fill-opacity:1;fill-rule:nonzero;stroke:none;fill:#888" transform="scale(1.33333)"/><path d="m58.894-199.799 1.856-3.288 1.856 3.29z" style="fill:none;stroke:red;stroke-width:2.63002896;stroke-linecap:butt;stroke-linejoin:miter;stroke-miterlimit:4;stroke-dasharray:none;stroke-opacity:1" transform="rotate(118.756)scale(1.5209)"/></svg>