<svg xmlns="http://www.w3.org/2000/svg" width="300px" height="300px" preserveAspectRatio="none" viewBox="0 0 300 300"><path d="M253.637 149.906c0 58.817-47.684 106.5-106.5 106.5-58.821 0-106.5-47.683-106.5-106.5s47.679-106.5 106.5-106.5c58.816 0 106.5 47.684 106.5 106.5Zm0 0" style="fill:none;stroke-opacity:1;stroke-miterlimit:4;stroke-linecap:butt;stroke-linejoin:miter;stroke-width:4.5px;stroke-dashoffset:0;stroke:#0080ff"/><path d="m148.594 159.281-24.477-17.824" style="fill:none;stroke:red;stroke-opacity:1;stroke-miterlimit:4;stroke-linecap:butt;stroke-linejoin:miter;stroke-width:3px;stroke-dashoffset:0"/><path d="m124.746 141.062-5.715-49.308m5.524 49.695-38.168 57.082m38.625-56.437 77.25-39.563" style="fill:none;stroke:#faa;stroke-opacity:1;stroke-miterlimit:4;stroke-linecap:butt;stroke-linejoin:miter;stroke-width:3px;stroke-dashoffset:0"/><path d="m138.887 168.281 8.25-36.75 8.25 36.75Zm0 0" style="fill:red;fill-opacity:1"/><path d="m187.691 106.242 32.161-19.605-20.696 31.468Zm0 0" style="fill-opacity:1;fill:#0080ff"/><path d="m218.605 257.547 26.583-26.684-12.626 35.485Zm-184.621 4.855 15.543-34.304.614 37.66ZM31.82 65.051l22.047-30.535-6.879 37.031Zm0 0" style="fill-opacity:1;fill:#888"/><path d="m105.219 94.746 24.554-28.558-9.992 36.316Zm-32.5 108.723 21.16-31.157-5.813 37.215Zm0 0" style="fill-opacity:1;fill:#0080ff"/><path d="m255.43 89.871 24.066-28.973-9.371 36.481Zm0 0" style="fill-opacity:1;fill:#888"/><path d="m-37.696 154.044 1.732-3.066 1.729 3.067Zm0 0" style="fill:none;stroke:red;stroke-opacity:1;stroke-miterlimit:4;stroke-linecap:butt;stroke-linejoin:miter;stroke-width:2.45324px;stroke-dashoffset:0" transform="rotate(-54.86)scale(1.22287)"/></svg>