<svg xmlns="http://www.w3.org/2000/svg" xmlns:xlink="http://www.w3.org/1999/xlink" width="460.8pt" height="345.6pt" viewBox="0 0 460.8 345.6"><defs><style>*{stroke-linecap:butt;stroke-linejoin:round}</style></defs><g id="figure_1"><path id="patch_1" d="M0 345.6h460.8V0H0z" style="fill:#fff"/><g id="axes_1"><path id="patch_2" d="M57.6 307.584h357.12V41.472H57.6z" style="fill:#fff"/><g id="matplotlib.axis_1"><g id="xtick_1"><path id="line2d_1" d="M137.653 307.584V41.472" clip-path="url(#pd1e142db56)" style="fill:none;stroke:#b0b0b0;stroke-dasharray:.8,1.32;stroke-dashoffset:0;stroke-width:.8"/><g id="line2d_2"><defs><path id="m11c340a5be" d="M0 0v3.5" style="stroke:#000;stroke-width:.8"/></defs><use xlink:href="#m11c340a5be" x="137.652808" y="307.584" style="stroke:#000;stroke-width:.8"/></g><g id="text_1"><defs><path id="DejaVuSans-49" d="M12.406 8.297h16.11v55.625l-17.532-3.516v8.985l17.438 3.515h9.86V8.296H54.39V0H12.406z"/><path id="DejaVuSans-48" d="M31.781 66.406q-7.61 0-11.453-7.5Q16.5 51.422 16.5 36.375q0-14.984 3.828-22.484 3.844-7.5 11.453-7.5 7.672 0 11.5 7.5 3.844 7.5 3.844 22.484 0 15.047-3.844 22.531-3.828 7.5-11.5 7.5m0 7.813q12.266 0 18.735-9.703 6.468-9.688 6.468-28.141 0-18.406-6.468-28.11-6.47-9.687-18.735-9.687-12.25 0-18.718 9.688-6.47 9.703-6.47 28.109 0 18.453 6.47 28.14Q19.53 74.22 31.78 74.22"/><path id="DejaVuSans-51" d="M40.578 39.313Q47.656 37.797 51.625 33q3.984-4.781 3.984-11.812 0-10.782-7.422-16.704-7.421-5.906-21.093-5.906-4.578 0-9.438.906-4.86.907-10.031 2.72v9.515q4.094-2.39 8.969-3.61 4.89-1.218 10.218-1.218 9.266 0 14.125 3.656 4.86 3.656 4.86 10.64 0 6.454-4.516 10.079-4.515 3.64-12.562 3.64h-8.5v8.11h8.89q7.266 0 11.125 2.906t3.86 8.375q0 5.61-3.985 8.61-3.968 3.015-11.39 3.015-4.063 0-8.703-.89-4.641-.876-10.203-2.72v8.782q5.624 1.562 10.53 2.344 4.907.78 9.25.78 11.235 0 17.766-5.109 6.547-5.093 6.547-13.78 0-6.063-3.468-10.235-3.47-4.172-9.86-5.782"/></defs><g transform="matrix(.07 0 0 -.07 131.493 319.903)"><use xlink:href="#DejaVuSans-49" transform="translate(0 .766)"/><use xlink:href="#DejaVuSans-48" transform="translate(63.623 .766)"/><use xlink:href="#DejaVuSans-51" transform="matrix(.7 0 0 .7 128.203 39.047)"/></g></g></g><g id="xtick_2"><path id="line2d_3" d="M245.5 307.584V41.472" clip-path="url(#pd1e142db56)" style="fill:none;stroke:#b0b0b0;stroke-dasharray:.8,1.32;stroke-dashoffset:0;stroke-width:.8"/><use xlink:href="#m11c340a5be" id="line2d_4" x="245.500713" y="307.584" style="stroke:#000;stroke-width:.8"/><g id="text_2"><defs><path id="DejaVuSans-52" d="M37.797 64.313 12.89 25.39h24.906zm-2.594 8.593H47.61V25.391h10.407v-8.203H47.609V0h-9.812v17.188H4.89v9.515z"/></defs><g transform="matrix(.07 0 0 -.07 239.34 319.903)"><use xlink:href="#DejaVuSans-49" transform="translate(0 .684)"/><use xlink:href="#DejaVuSans-48" transform="translate(63.623 .684)"/><use xlink:href="#DejaVuSans-52" transform="matrix(.7 0 0 .7 128.203 38.966)"/></g></g></g><g id="xtick_3"><path id="line2d_5" d="M353.349 307.584V41.472" clip-path="url(#pd1e142db56)" style="fill:none;stroke:#b0b0b0;stroke-dasharray:.8,1.32;stroke-dashoffset:0;stroke-width:.8"/><use xlink:href="#m11c340a5be" id="line2d_6" x="353.348619" y="307.584" style="stroke:#000;stroke-width:.8"/><g id="text_3"><defs><path id="DejaVuSans-53" d="M10.797 72.906h38.719v-8.312H19.828v-17.86q2.14.735 4.281 1.094 2.157.36 4.313.36 12.203 0 19.328-6.688 7.14-6.687 7.14-18.11 0-11.765-7.328-18.296-7.328-6.516-20.656-6.516-4.593 0-9.36.781-4.75.782-9.827 2.344v9.922q4.39-2.39 9.078-3.562t9.906-1.172q8.453 0 13.375 4.437 4.938 4.438 4.938 12.063 0 7.609-4.938 12.047-4.922 4.453-13.375 4.453-3.953 0-7.89-.875-3.922-.875-8.016-2.735z"/></defs><g transform="matrix(.07 0 0 -.07 347.189 319.903)"><use xlink:href="#DejaVuSans-49" transform="translate(0 .684)"/><use xlink:href="#DejaVuSans-48" transform="translate(63.623 .684)"/><use xlink:href="#DejaVuSans-53" transform="matrix(.7 0 0 .7 128.203 38.966)"/></g></g></g><g id="xtick_4"><path id="line2d_7" d="M62.27 307.584V41.472" clip-path="url(#pd1e142db56)" style="fill:none;stroke:#b0b0b0;stroke-dasharray:.8,1.32;stroke-dashoffset:0;stroke-width:.8"/><g id="line2d_8"><defs><path id="m93d0e8273e" d="M0 0v2" style="stroke:#000;stroke-width:.6"/></defs><use xlink:href="#m93d0e8273e" x="62.270357" y="307.584" style="stroke:#000;stroke-width:.6"/></g></g><g id="xtick_5"><path id="line2d_9" d="M81.261 307.584V41.472" clip-path="url(#pd1e142db56)" style="fill:none;stroke:#b0b0b0;stroke-dasharray:.8,1.32;stroke-dashoffset:0;stroke-width:.8"/><use xlink:href="#m93d0e8273e" id="line2d_10" x="81.26143" y="307.584" style="stroke:#000;stroke-width:.6"/></g><g id="xtick_6"><path id="line2d_11" d="M94.736 307.584V41.472" clip-path="url(#pd1e142db56)" style="fill:none;stroke:#b0b0b0;stroke-dasharray:.8,1.32;stroke-dashoffset:0;stroke-width:.8"/><use xlink:href="#m93d0e8273e" id="line2d_12" x="94.735811" y="307.584" style="stroke:#000;stroke-width:.6"/></g><g id="xtick_7"><path id="line2d_13" d="M105.187 307.584V41.472" clip-path="url(#pd1e142db56)" style="fill:none;stroke:#b0b0b0;stroke-dasharray:.8,1.32;stroke-dashoffset:0;stroke-width:.8"/><use xlink:href="#m93d0e8273e" id="line2d_14" x="105.187353" y="307.584" style="stroke:#000;stroke-width:.6"/></g><g id="xtick_8"><path id="line2d_15" d="M113.727 307.584V41.472" clip-path="url(#pd1e142db56)" style="fill:none;stroke:#b0b0b0;stroke-dasharray:.8,1.32;stroke-dashoffset:0;stroke-width:.8"/><use xlink:href="#m93d0e8273e" id="line2d_16" x="113.726885" y="307.584" style="stroke:#000;stroke-width:.6"/></g><g id="xtick_9"><path id="line2d_17" d="M120.947 307.584V41.472" clip-path="url(#pd1e142db56)" style="fill:none;stroke:#b0b0b0;stroke-dasharray:.8,1.32;stroke-dashoffset:0;stroke-width:.8"/><use xlink:href="#m93d0e8273e" id="line2d_18" x="120.946956" y="307.584" style="stroke:#000;stroke-width:.6"/></g><g id="xtick_10"><path id="line2d_19" d="M127.201 307.584V41.472" clip-path="url(#pd1e142db56)" style="fill:none;stroke:#b0b0b0;stroke-dasharray:.8,1.32;stroke-dashoffset:0;stroke-width:.8"/><use xlink:href="#m93d0e8273e" id="line2d_20" x="127.201266" y="307.584" style="stroke:#000;stroke-width:.6"/></g><g id="xtick_11"><path id="line2d_21" d="M132.718 307.584V41.472" clip-path="url(#pd1e142db56)" style="fill:none;stroke:#b0b0b0;stroke-dasharray:.8,1.32;stroke-dashoffset:0;stroke-width:.8"/><use xlink:href="#m93d0e8273e" id="line2d_22" x="132.717958" y="307.584" style="stroke:#000;stroke-width:.6"/></g><g id="xtick_12"><path id="line2d_23" d="M170.118 307.584V41.472" clip-path="url(#pd1e142db56)" style="fill:none;stroke:#b0b0b0;stroke-dasharray:.8,1.32;stroke-dashoffset:0;stroke-width:.8"/><use xlink:href="#m93d0e8273e" id="line2d_24" x="170.118262" y="307.584" style="stroke:#000;stroke-width:.6"/></g><g id="xtick_13"><path id="line2d_25" d="M189.11 307.584V41.472" clip-path="url(#pd1e142db56)" style="fill:none;stroke:#b0b0b0;stroke-dasharray:.8,1.32;stroke-dashoffset:0;stroke-width:.8"/><use xlink:href="#m93d0e8273e" id="line2d_26" x="189.109336" y="307.584" style="stroke:#000;stroke-width:.6"/></g><g id="xtick_14"><path id="line2d_27" d="M202.584 307.584V41.472" clip-path="url(#pd1e142db56)" style="fill:none;stroke:#b0b0b0;stroke-dasharray:.8,1.32;stroke-dashoffset:0;stroke-width:.8"/><use xlink:href="#m93d0e8273e" id="line2d_28" x="202.583717" y="307.584" style="stroke:#000;stroke-width:.6"/></g><g id="xtick_15"><path id="line2d_29" d="M213.035 307.584V41.472" clip-path="url(#pd1e142db56)" style="fill:none;stroke:#b0b0b0;stroke-dasharray:.8,1.32;stroke-dashoffset:0;stroke-width:.8"/><use xlink:href="#m93d0e8273e" id="line2d_30" x="213.035259" y="307.584" style="stroke:#000;stroke-width:.6"/></g><g id="xtick_16"><path id="line2d_31" d="M221.575 307.584V41.472" clip-path="url(#pd1e142db56)" style="fill:none;stroke:#b0b0b0;stroke-dasharray:.8,1.32;stroke-dashoffset:0;stroke-width:.8"/><use xlink:href="#m93d0e8273e" id="line2d_32" x="221.57479" y="307.584" style="stroke:#000;stroke-width:.6"/></g><g id="xtick_17"><path id="line2d_33" d="M228.795 307.584V41.472" clip-path="url(#pd1e142db56)" style="fill:none;stroke:#b0b0b0;stroke-dasharray:.8,1.32;stroke-dashoffset:0;stroke-width:.8"/><use xlink:href="#m93d0e8273e" id="line2d_34" x="228.794861" y="307.584" style="stroke:#000;stroke-width:.6"/></g><g id="xtick_18"><path id="line2d_35" d="M235.05 307.584V41.472" clip-path="url(#pd1e142db56)" style="fill:none;stroke:#b0b0b0;stroke-dasharray:.8,1.32;stroke-dashoffset:0;stroke-width:.8"/><use xlink:href="#m93d0e8273e" id="line2d_36" x="235.049171" y="307.584" style="stroke:#000;stroke-width:.6"/></g><g id="xtick_19"><path id="line2d_37" d="M240.566 307.584V41.472" clip-path="url(#pd1e142db56)" style="fill:none;stroke:#b0b0b0;stroke-dasharray:.8,1.32;stroke-dashoffset:0;stroke-width:.8"/><use xlink:href="#m93d0e8273e" id="line2d_38" x="240.565864" y="307.584" style="stroke:#000;stroke-width:.6"/></g><g id="xtick_20"><path id="line2d_39" d="M277.966 307.584V41.472" clip-path="url(#pd1e142db56)" style="fill:none;stroke:#b0b0b0;stroke-dasharray:.8,1.32;stroke-dashoffset:0;stroke-width:.8"/><use xlink:href="#m93d0e8273e" id="line2d_40" x="277.966168" y="307.584" style="stroke:#000;stroke-width:.6"/></g><g id="xtick_21"><path id="line2d_41" d="M296.957 307.584V41.472" clip-path="url(#pd1e142db56)" style="fill:none;stroke:#b0b0b0;stroke-dasharray:.8,1.32;stroke-dashoffset:0;stroke-width:.8"/><use xlink:href="#m93d0e8273e" id="line2d_42" x="296.957241" y="307.584" style="stroke:#000;stroke-width:.6"/></g><g id="xtick_22"><path id="line2d_43" d="M310.432 307.584V41.472" clip-path="url(#pd1e142db56)" style="fill:none;stroke:#b0b0b0;stroke-dasharray:.8,1.32;stroke-dashoffset:0;stroke-width:.8"/><use xlink:href="#m93d0e8273e" id="line2d_44" x="310.431622" y="307.584" style="stroke:#000;stroke-width:.6"/></g><g id="xtick_23"><path id="line2d_45" d="M320.883 307.584V41.472" clip-path="url(#pd1e142db56)" style="fill:none;stroke:#b0b0b0;stroke-dasharray:.8,1.32;stroke-dashoffset:0;stroke-width:.8"/><use xlink:href="#m93d0e8273e" id="line2d_46" x="320.883164" y="307.584" style="stroke:#000;stroke-width:.6"/></g><g id="xtick_24"><path id="line2d_47" d="M329.423 307.584V41.472" clip-path="url(#pd1e142db56)" style="fill:none;stroke:#b0b0b0;stroke-dasharray:.8,1.32;stroke-dashoffset:0;stroke-width:.8"/><use xlink:href="#m93d0e8273e" id="line2d_48" x="329.422696" y="307.584" style="stroke:#000;stroke-width:.6"/></g><g id="xtick_25"><path id="line2d_49" d="M336.643 307.584V41.472" clip-path="url(#pd1e142db56)" style="fill:none;stroke:#b0b0b0;stroke-dasharray:.8,1.32;stroke-dashoffset:0;stroke-width:.8"/><use xlink:href="#m93d0e8273e" id="line2d_50" x="336.642767" y="307.584" style="stroke:#000;stroke-width:.6"/></g><g id="xtick_26"><path id="line2d_51" d="M342.897 307.584V41.472" clip-path="url(#pd1e142db56)" style="fill:none;stroke:#b0b0b0;stroke-dasharray:.8,1.32;stroke-dashoffset:0;stroke-width:.8"/><use xlink:href="#m93d0e8273e" id="line2d_52" x="342.897077" y="307.584" style="stroke:#000;stroke-width:.6"/></g><g id="xtick_27"><path id="line2d_53" d="M348.414 307.584V41.472" clip-path="url(#pd1e142db56)" style="fill:none;stroke:#b0b0b0;stroke-dasharray:.8,1.32;stroke-dashoffset:0;stroke-width:.8"/><use xlink:href="#m93d0e8273e" id="line2d_54" x="348.413769" y="307.584" style="stroke:#000;stroke-width:.6"/></g><g id="xtick_28"><path id="line2d_55" d="M385.814 307.584V41.472" clip-path="url(#pd1e142db56)" style="fill:none;stroke:#b0b0b0;stroke-dasharray:.8,1.32;stroke-dashoffset:0;stroke-width:.8"/><use xlink:href="#m93d0e8273e" id="line2d_56" x="385.814073" y="307.584" style="stroke:#000;stroke-width:.6"/></g><g id="xtick_29"><path id="line2d_57" d="M404.805 307.584V41.472" clip-path="url(#pd1e142db56)" style="fill:none;stroke:#b0b0b0;stroke-dasharray:.8,1.32;stroke-dashoffset:0;stroke-width:.8"/><use xlink:href="#m93d0e8273e" id="line2d_58" x="404.805147" y="307.584" style="stroke:#000;stroke-width:.6"/></g><g id="text_4"><defs><path id="DejaVuSans-110" d="M54.89 33.016V0h-8.984v32.719q0 7.765-3.031 11.61-3.031 3.858-9.078 3.858-7.281 0-11.484-4.64-4.204-4.625-4.204-12.64V0H9.08v54.688h9.03v-8.5q3.235 4.937 7.594 7.374Q30.078 56 35.797 56q9.422 0 14.25-5.828 4.844-5.828 4.844-17.156"/><path id="DejaVuSans-117" d="M8.5 21.578v33.11h8.984V21.922q0-7.766 3.016-11.656 3.031-3.875 9.094-3.875 7.265 0 11.484 4.64 4.234 4.64 4.234 12.657v31h8.985V0h-8.984v8.406Q42.047 3.422 37.719 1q-4.313-2.422-10.032-2.422-9.421 0-14.312 5.86Q8.5 10.297 8.5 21.578M31.11 56"/><path id="DejaVuSans-109" d="M52 44.188q3.375 6.062 8.063 8.937Q64.75 56 71.093 56q8.548 0 13.188-5.984 4.64-5.97 4.64-17V0h-9.03v32.719q0 7.86-2.797 11.656-2.781 3.813-8.485 3.813-6.984 0-11.046-4.641-4.047-4.625-4.047-12.64V0h-9.032v32.719q0 7.906-2.78 11.687-2.782 3.782-8.595 3.782-6.89 0-10.953-4.657-4.047-4.656-4.047-12.625V0H9.08v54.688h9.03v-8.5q3.078 5.03 7.375 7.421T35.687 56q5.97 0 10.141-3.031Q50 49.953 52 44.187"/><path id="DejaVuSans-98" d="M48.688 27.297q0 9.906-4.079 15.547-4.078 5.64-11.203 5.64-7.14 0-11.218-5.64t-4.079-15.547 4.078-15.547 11.22-5.64q7.124 0 11.202 5.64t4.078 15.547M18.109 46.39q2.844 4.875 7.157 7.234Q29.594 56 35.594 56q9.968 0 16.187-7.906 6.235-7.907 6.235-20.797T51.78 6.484q-6.218-7.906-16.187-7.906-6 0-10.328 2.375-4.313 2.375-7.157 7.25V0H9.08v75.984h9.03z"/><path id="DejaVuSans-101" d="M56.203 29.594v-4.39H14.891q.593-9.282 5.593-14.141 5-4.86 13.938-4.86 5.172 0 10.031 1.266 4.86 1.265 9.656 3.812v-8.5Q49.266.734 44.187-.344 39.11-1.422 33.892-1.422q-13.094 0-20.735 7.61-7.64 7.625-7.64 20.625 0 13.421 7.25 21.296Q20.016 56 32.328 56q11.031 0 17.453-7.11 6.422-7.093 6.422-19.296m-8.984 2.64q-.094 7.36-4.125 11.75-4.032 4.407-10.672 4.407-7.516 0-12.031-4.25t-5.203-11.97z"/><path id="DejaVuSans-114" d="M41.11 46.297q-1.516.875-3.297 1.281Q36.03 48 33.89 48q-7.625 0-11.703-4.953-4.079-4.953-4.079-14.234V0H9.08v54.688h9.03v-8.5q2.844 4.984 7.375 7.39Q30.031 56 36.531 56q.922 0 2.047-.125 1.125-.11 2.484-.36z"/><path id="DejaVuSans-111" d="M30.61 48.39q-7.22 0-11.422-5.64-4.204-5.64-4.204-15.453t4.172-15.453q4.188-5.64 11.453-5.64 7.188 0 11.375 5.655 4.203 5.672 4.203 15.438 0 9.719-4.203 15.406-4.187 5.688-11.375 5.688m0 7.61q11.718 0 18.406-7.625 6.703-7.61 6.703-21.078 0-13.422-6.703-21.078-6.688-7.64-18.407-7.64-11.765 0-18.437 7.64-6.656 7.656-6.656 21.078 0 13.469 6.656 21.078Q18.844 56 30.609 56"/><path id="DejaVuSans-102" d="M37.11 75.984V68.5h-8.594q-4.828 0-6.72-1.953-1.874-1.953-1.874-7.031v-4.828h14.797v-6.985H19.922V0H10.89v47.703H2.297v6.984h8.594V58.5q0 9.125 4.25 13.297 4.25 4.187 13.468 4.187z"/><path id="DejaVuSans-105" d="M9.422 54.688h8.984V0H9.422zm0 21.296h8.984v-11.39H9.422z"/><path id="DejaVuSans-100" d="M45.406 46.39v29.594h8.985V0h-8.985v8.203Q42.578 3.328 38.25.953q-4.312-2.375-10.375-2.375-9.906 0-16.14 7.906-6.22 7.922-6.22 20.813t6.22 20.797Q17.968 56 27.874 56q6.063 0 10.375-2.375 4.328-2.36 7.156-7.234m-30.61-19.093q0-9.906 4.079-15.547 4.078-5.64 11.203-5.64t11.219 5.64q4.11 5.64 4.11 15.547t-4.11 15.547q-4.094 5.64-11.219 5.64t-11.203-5.64-4.078-15.547"/><path id="DejaVuSans-115" d="M44.281 53.078v-8.5q-3.797 1.953-7.906 2.922-4.094.984-8.5.984-6.687 0-10.031-2.047-3.344-2.046-3.344-6.156 0-3.125 2.39-4.906t9.626-3.39l3.078-.688q9.562-2.047 13.593-5.781 4.032-3.735 4.032-10.422 0-7.625-6.032-12.078-6.03-4.438-16.578-4.438-4.39 0-9.156.86Q10.688.297 5.422 2v9.281q4.984-2.594 9.812-3.89 4.829-1.282 9.579-1.282 6.343 0 9.75 2.172 3.421 2.172 3.421 6.125 0 3.656-2.468 5.61-2.453 1.953-10.813 3.765l-3.125.735q-8.344 1.75-12.062 5.39-3.703 3.64-3.703 9.985 0 7.718 5.468 11.906Q16.75 56 26.813 56q4.968 0 9.359-.734 4.406-.72 8.11-2.188"/></defs><g transform="matrix(.07 0 0 -.07 207.52 330.678)"><use xlink:href="#DejaVuSans-110"/><use xlink:href="#DejaVuSans-117" x="63.378906"/><use xlink:href="#DejaVuSans-109" x="126.757812"/><use xlink:href="#DejaVuSans-98" x="224.169922"/><use xlink:href="#DejaVuSans-101" x="287.646484"/><use xlink:href="#DejaVuSans-114" x="349.169922"/><use xlink:href="#DejaVuSans-111" x="422.070312"/><use xlink:href="#DejaVuSans-102" x="483.251953"/><use xlink:href="#DejaVuSans-98" x="550.244141"/><use xlink:href="#DejaVuSans-111" x="613.720703"/><use xlink:href="#DejaVuSans-105" x="674.902344"/><use xlink:href="#DejaVuSans-100" x="702.685547"/><use xlink:href="#DejaVuSans-115" x="766.162109"/></g></g></g><g id="matplotlib.axis_2"><g id="ytick_1"><path id="line2d_59" d="M57.6 295.973h357.12" clip-path="url(#pd1e142db56)" style="fill:none;stroke:#b0b0b0;stroke-dasharray:.8,1.32;stroke-dashoffset:0;stroke-width:.8"/><g id="line2d_60"><defs><path id="m1573f53c85" d="M0 0h-3.5" style="stroke:#000;stroke-width:.8"/></defs><use xlink:href="#m1573f53c85" x="57.6" y="295.97281" style="stroke:#000;stroke-width:.8"/></g><use xlink:href="#DejaVuSans-48" id="text_5" transform="matrix(.07 0 0 -.07 46.146 298.632)"/></g><g id="ytick_2"><path id="line2d_61" d="M57.6 247.492h357.12" clip-path="url(#pd1e142db56)" style="fill:none;stroke:#b0b0b0;stroke-dasharray:.8,1.32;stroke-dashoffset:0;stroke-width:.8"/><use xlink:href="#m1573f53c85" id="line2d_62" x="57.6" y="247.491848" style="stroke:#000;stroke-width:.8"/><g id="text_6" transform="matrix(.07 0 0 -.07 37.239 250.151)"><use xlink:href="#DejaVuSans-49"/><use xlink:href="#DejaVuSans-48" x="63.623047"/><use xlink:href="#DejaVuSans-48" x="127.246094"/></g></g><g id="ytick_3"><path id="line2d_63" d="M57.6 199.01h357.12" clip-path="url(#pd1e142db56)" style="fill:none;stroke:#b0b0b0;stroke-dasharray:.8,1.32;stroke-dashoffset:0;stroke-width:.8"/><use xlink:href="#m1573f53c85" id="line2d_64" x="57.6" y="199.010886" style="stroke:#000;stroke-width:.8"/><g id="text_7"><defs><path id="DejaVuSans-50" d="M19.188 8.297h34.421V0H7.33v8.297q5.609 5.812 15.296 15.594 9.703 9.797 12.188 12.64 4.734 5.313 6.609 9 1.89 3.688 1.89 7.25 0 5.813-4.078 9.469-4.078 3.672-10.625 3.672-4.64 0-9.797-1.61-5.14-1.609-11-4.89v9.969Q13.767 71.78 18.938 73q5.188 1.219 9.485 1.219 11.328 0 18.062-5.672 6.735-5.656 6.735-15.125 0-4.5-1.688-8.531-1.672-4.016-6.125-9.485-1.218-1.422-7.765-8.187-6.532-6.766-18.453-18.922"/></defs><g transform="matrix(.07 0 0 -.07 37.239 201.67)"><use xlink:href="#DejaVuSans-50"/><use xlink:href="#DejaVuSans-48" x="63.623047"/><use xlink:href="#DejaVuSans-48" x="127.246094"/></g></g></g><g id="ytick_4"><path id="line2d_65" d="M57.6 150.53h357.12" clip-path="url(#pd1e142db56)" style="fill:none;stroke:#b0b0b0;stroke-dasharray:.8,1.32;stroke-dashoffset:0;stroke-width:.8"/><use xlink:href="#m1573f53c85" id="line2d_66" x="57.6" y="150.529924" style="stroke:#000;stroke-width:.8"/><g id="text_8" transform="matrix(.07 0 0 -.07 37.239 153.19)"><use xlink:href="#DejaVuSans-51"/><use xlink:href="#DejaVuSans-48" x="63.623047"/><use xlink:href="#DejaVuSans-48" x="127.246094"/></g></g><g id="ytick_5"><path id="line2d_67" d="M57.6 102.049h357.12" clip-path="url(#pd1e142db56)" style="fill:none;stroke:#b0b0b0;stroke-dasharray:.8,1.32;stroke-dashoffset:0;stroke-width:.8"/><use xlink:href="#m1573f53c85" id="line2d_68" x="57.6" y="102.048962" style="stroke:#000;stroke-width:.8"/><g id="text_9" transform="matrix(.07 0 0 -.07 37.239 104.708)"><use xlink:href="#DejaVuSans-52"/><use xlink:href="#DejaVuSans-48" x="63.623047"/><use xlink:href="#DejaVuSans-48" x="127.246094"/></g></g><g id="ytick_6"><path id="line2d_69" d="M57.6 53.568h357.12" clip-path="url(#pd1e142db56)" style="fill:none;stroke:#b0b0b0;stroke-dasharray:.8,1.32;stroke-dashoffset:0;stroke-width:.8"/><use xlink:href="#m1573f53c85" id="line2d_70" x="57.6" y="53.568" style="stroke:#000;stroke-width:.8"/><g id="text_10" transform="matrix(.07 0 0 -.07 37.239 56.227)"><use xlink:href="#DejaVuSans-53"/><use xlink:href="#DejaVuSans-48" x="63.623047"/><use xlink:href="#DejaVuSans-48" x="127.246094"/></g></g><g id="text_11"><defs><path id="DejaVuSans-116" d="M18.313 70.219V54.688h18.5v-6.985h-18.5V18.016q0-6.688 1.828-8.594t7.453-1.906h9.218V0h-9.218q-10.407 0-14.36 3.875-3.953 3.89-3.953 14.14v29.688H2.687v6.984h6.594V70.22z"/><path id="DejaVuSans-112" d="M18.11 8.203v-29H9.077v75.485h9.031V46.39q2.844 4.875 7.157 7.234Q29.594 56 35.594 56q9.968 0 16.187-7.906 6.235-7.907 6.235-20.797T51.78 6.484q-6.218-7.906-16.187-7.906-6 0-10.328 2.375-4.313 2.375-7.157 7.25m30.578 19.094q0 9.906-4.079 15.547-4.078 5.64-11.203 5.64-7.14 0-11.218-5.64t-4.079-15.547 4.078-15.547 11.22-5.64q7.124 0 11.202 5.64t4.078 15.547"/><path id="DejaVuSans-97" d="M34.281 27.484q-10.89 0-15.093-2.484-4.204-2.484-4.204-8.5 0-4.781 3.157-7.594 3.156-2.797 8.562-2.797 7.485 0 12 5.297 4.516 5.297 4.516 14.078v2zm17.922 3.72V0H43.22v8.297Q40.14 3.328 35.547.953T24.313-1.422q-8.391 0-13.36 4.719Q6 8.016 6 15.922q0 9.219 6.172 13.906 6.187 4.688 18.437 4.688h12.61v.89q0 6.203-4.078 9.594t-11.453 3.39q-4.688 0-9.141-1.124-4.438-1.125-8.531-3.375v8.312q4.922 1.906 9.562 2.844 4.64.953 9.031.953 11.875 0 17.735-6.156 5.86-6.14 5.86-18.64"/><path id="DejaVuSans-91" d="M8.594 75.984h20.703V69H17.578V-6.203h11.719v-6.984H8.594z"/><path id="DejaVuSans-93" d="M30.422 75.984v-89.171H9.719v6.984H21.39V69H9.719v6.984z"/></defs><g transform="matrix(0 -.07 -.07 0 31.783 209.929)"><use xlink:href="#DejaVuSans-116"/><use xlink:href="#DejaVuSans-105" x="39.208984"/><use xlink:href="#DejaVuSans-109" x="66.992188"/><use xlink:href="#DejaVuSans-101" x="164.404297"/><use xlink:href="#DejaVuSans-112" x="257.714844"/><use xlink:href="#DejaVuSans-101" x="321.191406"/><use xlink:href="#DejaVuSans-114" x="382.714844"/><use xlink:href="#DejaVuSans-102" x="455.615234"/><use xlink:href="#DejaVuSans-114" x="490.820312"/><use xlink:href="#DejaVuSans-97" x="531.933594"/><use xlink:href="#DejaVuSans-109" x="593.212891"/><use xlink:href="#DejaVuSans-101" x="690.625"/><use xlink:href="#DejaVuSans-91" x="783.935547"/><use xlink:href="#DejaVuSans-109" x="822.949219"/><use xlink:href="#DejaVuSans-115" x="920.361328"/><use xlink:href="#DejaVuSans-93" x="972.460938"/></g></g></g><path id="line2d_71" d="m73.833 295.488 22.944-.633 15.333-.634 14.821-.844 11.241-.845 9.06-.914 9.306-1.15 9.17-1.379 7.664-1.379 7.598-1.609 6.536-1.608 6.5-1.84 5.706-1.838 3.865-1.379 1.22-1.837 3.483-5.948 3.24-5.948 3.518-6.939 3.272-6.939 3.48-7.93 3.238-7.93 3.394-8.922 3.165-8.922 3.283-9.912 3.363-10.905 3.138-10.904 3.2-11.895 3.235-12.887 3.252-13.878 3.25-14.87 3.235-15.86 3.209-16.852 3.174-17.843 3.29-19.825 1.41-8.922h0" clip-path="url(#pd1e142db56)" style="fill:none;stroke:#1f77b4;stroke-linecap:square;stroke-width:1.5"/><path id="line2d_72" d="m73.833 295.488 28.886-.827 17.734-.827 22.896-1.371 21.424-.724 14.645-.723 14.334-.965 10.96-.993 8.875-1.24 7.458-1.241 7.911-1.55 6.766-1.551 7.009-1.86 6.095-1.861 5.392-1.86 5.595-2.172 4.997-2.17 3.896-1.896 3.597-3.489 3.874-4.07 3.578-4.07 3.78-4.651 3.499-4.652 3.646-5.233 3.382-5.233 3.493-5.814 3.25-5.814.313-.618 3.31-11.015 3.364-12.016 3.138-12.017 3.178-13.017 3.198-14.02 3.2-15.02 3.187-16.022 3.165-17.023 3.301-19.026L333.4 78.81l.156-1.002h0" clip-path="url(#pd1e142db56)" style="fill:none;stroke:#ff7f0e;stroke-linecap:square;stroke-width:1.5"/><path id="line2d_73" d="m73.833 288.216 194.873-.028 5.85-2.132 5.2-2.132 5.122-2.345 5.016-2.558 4.53-2.558 4.458-2.772 2.236-1.511 3.6-5.194 3.612-5.627 3.353-5.627 3.361-6.06 3.353-6.493 3.33-6.926 3.295-7.358 3.254-7.791 3.37-8.657 1.91-5.194h0" clip-path="url(#pd1e142db56)" style="fill:none;stroke:#2ca02c;stroke-linecap:square;stroke-width:1.5"/><path id="line2d_74" d="m73.833 288.216 260.016-.1 5.841-2.139 5.193-2.138 5.117-2.352 5.01-2.566 4.525-2.566 4.455-2.78 2.234-1.534 3.885-3.537 3.853-3.81 3.804-4.082 3.744-4.355 3.674-4.626 3.6-4.898 3.523-5.17 3.441-5.444 2.74-4.626h0" clip-path="url(#pd1e142db56)" style="fill:none;stroke:#d62728;stroke-linecap:square;stroke-width:1.5"/><path id="line2d_75" d="M268.625 307.584V41.472" clip-path="url(#pd1e142db56)" style="fill:none;stroke:#000;stroke-linecap:square;stroke-width:.5"/><path id="patch_3" d="M57.6 307.584V41.472" style="fill:none;stroke:#000;stroke-linecap:square;stroke-linejoin:miter;stroke-width:2"/><path id="patch_4" d="M414.72 307.584V41.472" style="fill:none;stroke:#000;stroke-linecap:square;stroke-linejoin:miter;stroke-width:2"/><path id="patch_5" d="M57.6 307.584h357.12" style="fill:none;stroke:#000;stroke-linecap:square;stroke-linejoin:miter;stroke-width:2"/><path id="patch_6" d="M57.6 41.472h357.12" style="fill:none;stroke:#000;stroke-linecap:square;stroke-linejoin:miter;stroke-width:2"/><g id="text_12"><defs><path id="DejaVuSans-120" d="m54.89 54.688-19.78-26.61L55.905 0H45.313L29.39 21.484 13.484 0H2.875l21.25 28.61L4.688 54.687H15.28l14.5-19.485 14.5 19.484z"/><path id="DejaVuSans-215" d="M70.125 53.719 47.797 31.297 70.125 8.984l-5.812-5.906L41.89 25.484 19.484 3.078 13.72 8.984l22.265 22.313L13.72 53.719l5.765 5.906 22.407-22.422 22.422 22.422z"/></defs><g transform="matrix(.07 0 0 -.07 179.192 58.416)"><use xlink:href="#DejaVuSans-98" transform="translate(0 .016)"/><use xlink:href="#DejaVuSans-111" transform="translate(63.477 .016)"/><use xlink:href="#DejaVuSans-120" transform="translate(124.658 .016)"/><use xlink:href="#DejaVuSans-50" transform="translate(215.625 .016)"/><use xlink:href="#DejaVuSans-48" transform="translate(279.248 .016)"/><use xlink:href="#DejaVuSans-48" transform="translate(342.871 .016)"/><use xlink:href="#DejaVuSans-215" transform="translate(425.977 .016)"/><use xlink:href="#DejaVuSans-50" transform="translate(529.248 .016)"/><use xlink:href="#DejaVuSans-48" transform="translate(592.871 .016)"/><use xlink:href="#DejaVuSans-48" transform="translate(656.494 .016)"/><use xlink:href="#DejaVuSans-215" transform="translate(739.6 .016)"/><use xlink:href="#DejaVuSans-50" transform="translate(842.871 .016)"/><use xlink:href="#DejaVuSans-48" transform="translate(906.494 .016)"/><use xlink:href="#DejaVuSans-48" transform="translate(970.117 .016)"/></g></g><g id="text_13" transform="matrix(.07 0 0 -.07 305.994 58.416)"><use xlink:href="#DejaVuSans-98" transform="translate(0 .016)"/><use xlink:href="#DejaVuSans-111" transform="translate(63.477 .016)"/><use xlink:href="#DejaVuSans-120" transform="translate(124.658 .016)"/><use xlink:href="#DejaVuSans-52" transform="translate(215.625 .016)"/><use xlink:href="#DejaVuSans-48" transform="translate(279.248 .016)"/><use xlink:href="#DejaVuSans-48" transform="translate(342.871 .016)"/><use xlink:href="#DejaVuSans-215" transform="translate(425.977 .016)"/><use xlink:href="#DejaVuSans-52" transform="translate(529.248 .016)"/><use xlink:href="#DejaVuSans-48" transform="translate(592.871 .016)"/><use xlink:href="#DejaVuSans-48" transform="translate(656.494 .016)"/><use xlink:href="#DejaVuSans-215" transform="translate(739.6 .016)"/><use xlink:href="#DejaVuSans-52" transform="translate(842.871 .016)"/><use xlink:href="#DejaVuSans-48" transform="translate(906.494 .016)"/><use xlink:href="#DejaVuSans-48" transform="translate(970.117 .016)"/></g><g id="legend_1"><path id="patch_7" d="M62.5 88.17h97.572q1.4 0 1.4-1.4V46.373q0-1.4-1.4-1.4H62.5q-1.4 0-1.4 1.4v40.399q0 1.4 1.4 1.4z" style="fill:#fff;opacity:.8;stroke:#ccc;stroke-linejoin:miter"/><path id="line2d_76" d="M63.9 50.64h14" style="fill:none;stroke:#1f77b4;stroke-linecap:square;stroke-width:1.5"/><g id="text_14"><defs><path id="DejaVuSans-67" d="M64.406 67.281v-10.39q-4.984 4.64-10.625 6.922-5.64 2.296-11.984 2.296-12.5 0-19.14-7.64t-6.641-22.094q0-14.406 6.64-22.047 6.64-7.64 19.14-7.64 6.345 0 11.985 2.296 5.64 2.297 10.625 6.938V5.609Q59.234 2.094 53.437.33q-5.78-1.75-12.218-1.75-16.563 0-26.094 10.124-9.516 10.14-9.516 27.672 0 17.578 9.516 27.703 9.531 10.14 26.094 10.14 6.531 0 12.312-1.734 5.797-1.734 10.875-5.203"/><path id="DejaVuSans-80" d="M19.672 64.797v-27.39h12.406q6.89 0 10.64 3.562 3.766 3.562 3.766 10.156 0 6.547-3.765 10.11-3.75 3.562-10.64 3.562zm-9.86 8.11h22.266q12.266 0 18.531-5.548 6.282-5.546 6.282-16.234 0-10.797-6.282-16.312-6.265-5.516-18.53-5.516H19.671V0h-9.86z"/><path id="DejaVuSans-85" d="M8.688 72.906h9.921V28.61q0-11.718 4.235-16.875 4.25-5.14 13.781-5.14 9.469 0 13.719 5.14 4.25 5.157 4.25 16.875v44.297H64.5V27.391q0-14.25-7.062-21.532-7.047-7.28-20.813-7.28-13.828 0-20.89 7.28-7.047 7.282-7.047 21.532z"/><path id="DejaVuSans-118" d="M2.984 54.688H12.5L29.594 8.797l17.094 45.89h9.515L35.687 0H23.485z"/><path id="DejaVuSans-71" d="M59.516 10.406v19.578h-16.11v8.11h25.875V6.78Q63.578 2.734 56.687.656 49.814-1.422 42-1.422q-17.094 0-26.75 9.985-9.64 10-9.64 27.812 0 17.875 9.64 27.86 9.656 9.984 26.75 9.984 7.125 0 13.547-1.766 6.422-1.75 11.844-5.172v-10.5q-5.47 4.64-11.625 6.985-6.157 2.343-12.938 2.343-13.39 0-20.11-7.468-6.702-7.47-6.702-22.266 0-14.75 6.703-22.219 6.718-7.469 20.11-7.469 5.218 0 9.312.907 4.109.906 7.375 2.812"/><path id="DejaVuSans-84" d="M-.297 72.906h61.672v-8.312H35.5V0h-9.906v64.594H-.296z"/><path id="DejaVuSans-88" d="M6.297 72.906H16.89l18.125-27.11 18.203 27.11h10.593L40.376 37.891 65.375 0H54.781l-20.5 31L13.625 0H2.985L29 38.922z"/><path id="DejaVuSans-54" d="M33.016 40.375q-6.641 0-10.532-4.547-3.875-4.531-3.875-12.437 0-7.86 3.875-12.438 3.891-4.562 10.532-4.562 6.64 0 10.515 4.562 3.875 4.578 3.875 12.438 0 7.906-3.875 12.437-3.875 4.547-10.515 4.547m19.578 30.922v-8.984q-3.719 1.75-7.5 2.671-3.782.938-7.5.938-9.766 0-14.922-6.594-5.14-6.594-5.875-19.922 2.875 4.25 7.219 6.516 4.359 2.266 9.578 2.266 10.984 0 17.36-6.672 6.374-6.657 6.374-18.125 0-11.235-6.64-18.032-6.641-6.78-17.672-6.78-12.657 0-19.344 9.687-6.688 9.703-6.688 28.109 0 17.281 8.204 27.563 8.203 10.28 22.015 10.28 3.719 0 7.5-.734t7.89-2.187"/></defs><g transform="matrix(.07 0 0 -.07 83.5 53.09)"><use xlink:href="#DejaVuSans-67"/><use xlink:href="#DejaVuSans-80" x="69.824219"/><use xlink:href="#DejaVuSans-85" x="130.126953"/><use xlink:href="#DejaVuSans-110" x="235.107422"/><use xlink:href="#DejaVuSans-97" x="298.486328"/><use xlink:href="#DejaVuSans-105" x="359.765625"/><use xlink:href="#DejaVuSans-118" x="387.548828"/><use xlink:href="#DejaVuSans-101" x="446.728516"/><use xlink:href="#DejaVuSans-71" x="540.039062"/><use xlink:href="#DejaVuSans-84" x="613.904297"/><use xlink:href="#DejaVuSans-88" x="674.988281"/><use xlink:href="#DejaVuSans-49" x="775.28125"/><use xlink:href="#DejaVuSans-48" x="838.904297"/><use xlink:href="#DejaVuSans-54" x="902.527344"/><use xlink:href="#DejaVuSans-48" x="966.150391"/></g></g><path id="line2d_78" d="M63.9 60.916h14" style="fill:none;stroke:#ff7f0e;stroke-linecap:square;stroke-width:1.5"/><g id="text_15"><defs><path id="DejaVuSans-99" d="M48.781 52.594v-8.407q-3.812 2.11-7.64 3.157t-7.735 1.047q-8.75 0-13.593-5.547-4.829-5.532-4.829-15.547t4.829-15.563q4.843-5.53 13.593-5.53 3.907 0 7.735 1.046t7.64 3.156V2.094Q45.016.344 40.984-.531q-4.015-.89-8.562-.89-12.36 0-19.64 7.765-7.266 7.765-7.266 20.953 0 13.375 7.343 21.031Q20.22 56 33.016 56q4.14 0 8.093-.86 3.953-.843 7.672-2.546"/></defs><g transform="matrix(.07 0 0 -.07 83.5 63.366)"><use xlink:href="#DejaVuSans-67"/><use xlink:href="#DejaVuSans-80" x="69.824219"/><use xlink:href="#DejaVuSans-85" x="130.126953"/><use xlink:href="#DejaVuSans-111" x="235.107422"/><use xlink:href="#DejaVuSans-99" x="296.289062"/><use xlink:href="#DejaVuSans-116" x="351.269531"/><use xlink:href="#DejaVuSans-114" x="390.478516"/><use xlink:href="#DejaVuSans-101" x="429.341797"/><use xlink:href="#DejaVuSans-101" x="490.865234"/><use xlink:href="#DejaVuSans-71" x="584.175781"/><use xlink:href="#DejaVuSans-84" x="658.041016"/><use xlink:href="#DejaVuSans-88" x="719.125"/><use xlink:href="#DejaVuSans-49" x="819.417969"/><use xlink:href="#DejaVuSans-48" x="883.041016"/><use xlink:href="#DejaVuSans-54" x="946.664062"/><use xlink:href="#DejaVuSans-48" x="1010.287109"/></g></g><path id="line2d_80" d="M63.9 71.19h14" style="fill:none;stroke:#2ca02c;stroke-linecap:square;stroke-width:1.5"/><g id="text_16" transform="matrix(.07 0 0 -.07 83.5 73.64)"><use xlink:href="#DejaVuSans-71"/><use xlink:href="#DejaVuSans-80" x="77.490234"/><use xlink:href="#DejaVuSans-85" x="137.792969"/><use xlink:href="#DejaVuSans-110" x="242.773438"/><use xlink:href="#DejaVuSans-97" x="306.152344"/><use xlink:href="#DejaVuSans-105" x="367.431641"/><use xlink:href="#DejaVuSans-118" x="395.214844"/><use xlink:href="#DejaVuSans-101" x="454.394531"/><use xlink:href="#DejaVuSans-71" x="547.705078"/><use xlink:href="#DejaVuSans-84" x="621.570312"/><use xlink:href="#DejaVuSans-88" x="682.654297"/><use xlink:href="#DejaVuSans-49" x="782.947266"/><use xlink:href="#DejaVuSans-48" x="846.570312"/><use xlink:href="#DejaVuSans-54" x="910.193359"/><use xlink:href="#DejaVuSans-48" x="973.816406"/></g><path id="line2d_82" d="M63.9 81.465h14" style="fill:none;stroke:#d62728;stroke-linecap:square;stroke-width:1.5"/><g id="text_17"><defs><path id="DejaVuSans-103" d="M45.406 27.984q0 9.766-4.031 15.125-4.016 5.375-11.297 5.375-7.219 0-11.25-5.375-4.031-5.359-4.031-15.125 0-9.718 4.031-15.093t11.25-5.375q7.281 0 11.297 5.375 4.031 5.375 4.031 15.093m8.985-21.203q0-13.953-6.203-20.765Q42-20.797 29.203-20.797q-4.734 0-8.937.703t-8.157 2.172v8.735q3.954-2.141 7.813-3.157 3.86-1.031 7.86-1.031 8.843 0 13.234 4.61 4.39 4.609 4.39 13.937v4.453q-2.781-4.844-7.125-7.234Q33.938 0 27.875 0 17.828 0 11.672 7.656q-6.156 7.672-6.156 20.328 0 12.688 6.156 20.344Q17.828 56 27.875 56q6.063 0 10.406-2.39t7.125-7.22v8.298h8.985z"/></defs><g transform="matrix(.07 0 0 -.07 83.5 83.915)"><use xlink:href="#DejaVuSans-71"/><use xlink:href="#DejaVuSans-80" x="77.490234"/><use xlink:href="#DejaVuSans-85" x="137.792969"/><use xlink:href="#DejaVuSans-103" x="242.773438"/><use xlink:href="#DejaVuSans-114" x="306.25"/><use xlink:href="#DejaVuSans-105" x="347.363281"/><use xlink:href="#DejaVuSans-100" x="375.146484"/><use xlink:href="#DejaVuSans-71" x="470.410156"/><use xlink:href="#DejaVuSans-84" x="544.275391"/><use xlink:href="#DejaVuSans-88" x="605.359375"/><use xlink:href="#DejaVuSans-49" x="705.652344"/><use xlink:href="#DejaVuSans-48" x="769.275391"/><use xlink:href="#DejaVuSans-54" x="832.898438"/><use xlink:href="#DejaVuSans-48" x="896.521484"/></g></g></g></g></g><defs><clipPath id="pd1e142db56"><path d="M57.6 41.472h357.12v266.112H57.6z"/></clipPath></defs></svg>