<svg xmlns="http://www.w3.org/2000/svg" width="400" height="400" viewBox="0 0 400 400"><path d="m86.703 63.676 17.238-12.082 28.188-8.055 28.945.254 18.875 4.277 18.121 8.055 10.067 7.047c.125.25-53.481 21.39-53.985 21.14-.504-.253-67.449-20.636-67.449-20.636Z" style="fill:#faa;fill-opacity:1;fill-rule:nonzero;stroke:#faa;stroke-width:1.5;stroke-linecap:butt;stroke-linejoin:miter;stroke-miterlimit:4;stroke-dasharray:none;stroke-opacity:1" transform="scale(1.33333)"/><path d="m-209.059-63.492 61.903-86.348 61.902 86.348z" style="fill:#faa;fill-opacity:1;fill-rule:nonzero;stroke:#faa;stroke-width:1.5;stroke-linecap:butt;stroke-linejoin:miter;stroke-miterlimit:4;stroke-dasharray:none;stroke-opacity:1" transform="rotate(180)scale(1.33333)"/><path d="M253.637 149.906c0 58.817-47.684 106.5-106.5 106.5-58.821 0-106.5-47.683-106.5-106.5 0-58.816 47.679-106.5 106.5-106.5 58.816 0 106.5 47.684 106.5 106.5z" style="fill:none;stroke-width:4.5;stroke-linecap:butt;stroke-linejoin:miter;stroke-miterlimit:4;stroke-dasharray:none;stroke-opacity:1;stroke:#0080ff" transform="scale(1.33333)"/><path d="m36.35 178.218 14.512 8.686" style="fill:none;stroke:red;stroke-width:2.5453639;stroke-linecap:butt;stroke-linejoin:miter;stroke-miterlimit:4;stroke-dasharray:none;stroke-opacity:1" transform="rotate(-31.956)scale(1.57148)"/><path d="m138.887 168.281 8.25-36.75 8.25 36.75z" style="fill:red;fill-opacity:1;fill-rule:nonzero;stroke:none" transform="scale(1.33333)"/><path d="m187.691 106.242 32.161-19.605-20.696 31.468z" style="fill-opacity:1;fill-rule:nonzero;stroke:none;fill:#0080ff" transform="scale(1.33333)"/><path d="m218.605 257.547 26.583-26.684-12.626 35.485zm-184.621 4.855 15.543-34.304.614 37.66zM31.82 65.051l22.047-30.535-6.879 37.031Z" style="fill-opacity:1;fill-rule:nonzero;stroke:none;fill:#888" transform="scale(1.33333)"/><path d="m105.219 94.746 24.554-28.558-9.992 36.316zm-32.5 108.723 21.16-31.157-5.813 37.215z" style="fill-opacity:1;fill-rule:nonzero;stroke:none;fill:#0080ff" transform="scale(1.33333)"/><path d="m255.43 89.871 24.066-28.973-9.371 36.481z" style="fill-opacity:1;fill-rule:nonzero;stroke:none;fill:#888" transform="scale(1.33333)"/><path d="m153.016-167.902 2.117-3.75 2.117 3.75z" style="fill:none;stroke:red;stroke-width:3;stroke-linecap:butt;stroke-linejoin:miter;stroke-miterlimit:4;stroke-dasharray:none;stroke-opacity:1" transform="rotate(90)scale(1.33333)"/></svg>